<svg width="57" height="57" viewBox="0 0 57 57" fill="none" xmlns="http://www.w3.org/2000/svg">
<rect x="0.25" y="0.5" width="56" height="56" rx="16" fill="#444444"/>
<path d="M28.25 35.25C28.0515 35.2487 27.8615 35.1693 27.7211 35.0289C27.5807 34.8885 27.5013 34.6985 27.5 34.5V31.5C27.5013 31.3015 27.5807 31.1115 27.7211 30.9711C27.8615 30.8307 28.0515 30.7513 28.25 30.75C28.4485 30.7513 28.6385 30.8307 28.7789 30.9711C28.9193 31.1115 28.9987 31.3015 29 31.5V34.5C28.9987 34.6985 28.9193 34.8885 28.7789 35.0289C28.6385 35.1693 28.4485 35.2487 28.25 35.25Z" fill="#EBD750"/>
<path d="M33.8503 39.0602H22.6503C21.7492 39.0451 20.881 38.7194 20.1923 38.1382C19.5036 37.557 19.0367 36.7559 18.8703 35.8702L17.5403 27.9002C17.4556 27.2299 17.5372 26.549 17.7779 25.9177C18.0185 25.2864 18.4109 24.724 18.9203 24.2802L25.8503 18.7302C26.5412 18.2063 27.3849 17.9235 28.252 17.9253C29.119 17.9271 29.9616 18.2134 30.6503 18.7402L37.5803 24.2802C38.084 24.7285 38.4724 25.2915 38.7126 25.9216C38.9528 26.5517 39.0377 27.2303 38.9603 27.9002L37.6303 35.8602C37.4551 36.7425 36.9859 37.5394 36.2994 38.1206C35.6128 38.7018 34.7494 39.0331 33.8503 39.0602ZM28.2403 19.4302C27.7182 19.4217 27.2081 19.587 26.7903 19.9002L19.8603 25.4602C19.5617 25.7385 19.3309 26.0815 19.1853 26.4628C19.0397 26.8441 18.9832 27.2537 19.0203 27.6602L20.3503 35.6202C20.4634 36.1532 20.751 36.6333 21.1675 36.9847C21.5841 37.336 22.1058 37.5385 22.6503 37.5602H33.8503C34.3962 37.5383 34.9192 37.3345 35.336 36.9811C35.7527 36.6278 36.0394 36.1452 36.1503 35.6102L37.4803 27.6502C37.5127 27.2441 37.4541 26.8359 37.3088 26.4553C37.1635 26.0747 36.9351 25.7313 36.6403 25.4502L29.7103 19.9102C29.2874 19.5909 28.7701 19.422 28.2403 19.4302Z" fill="#EBD750"/>
</svg>
