<svg width="576" height="669" viewBox="0 0 576 669" fill="none" xmlns="http://www.w3.org/2000/svg">
<g clip-path="url(#clip0_27_152)">
<path d="M154.017 203.647C149.911 205.211 145.718 206.537 141.46 207.619C135.834 208.99 132.658 209.625 127.228 207.518C127.038 207.444 126.856 207.371 126.684 207.299C116.392 202.923 107.595 195.65 101.362 186.364C95.1294 177.079 91.7305 166.182 91.5791 155C91.5519 154.616 91.5519 154.213 91.5519 153.819C91.5466 151.924 91.6372 150.03 91.8233 148.144C92.0613 145.575 92.4722 143.025 93.0535 140.511L92.9992 140.501C88.6032 136.006 86.9117 129.849 87.4725 123.662C87.8567 119.467 89.1879 115.415 91.3658 111.809C93.5437 108.204 96.5114 105.14 100.045 102.848C105.584 99.3661 111.829 97.1618 118.326 96.3957C120.071 96.1946 121.825 96.0928 123.581 96.0908H140.08C143.487 95.293 146.949 94.7473 150.437 94.458H150.464C183.669 91.7039 209.855 113.717 207.413 140.501C207.395 140.531 207.368 140.56 207.35 140.59C206.644 141.741 206.02 142.832 205.468 143.875C204.935 144.849 204.482 145.783 204.093 146.668C201.063 153.514 215.463 259.73 210.298 261.343C207.359 262.258 195.509 183.22 197.635 198.249C200.312 217.105 169.315 197.992 154.017 203.647Z" fill="black"/>
<path d="M204.039 395.654L250.068 493.714L73.005 475.781L109.966 381.645L204.039 395.654Z" fill="#FFB6B6"/>
<path d="M296.439 592.26C265.648 602.509 233.201 606.855 200.799 605.07L186.709 582.22C186.709 582.22 186.119 590.73 185.239 603.74C169.814 601.953 154.591 598.725 139.769 594.1C111.659 585.31 85.3086 571.69 58.5986 559.13C53.1886 526.88 51.1586 477.15 81.0686 448.2L242.059 477.7C242.059 477.7 267.889 497.02 260.979 503.94C254.069 510.85 252.999 509.78 257.539 514.32C262.079 518.86 271.889 524.93 271.989 528.9C272.029 530.45 283.039 558.56 296.439 592.26Z" fill="#282828"/>
<path d="M175.926 206.167L137.032 208.88L111.893 233.172L103.088 234.744C95.1743 236.155 88.0533 240.421 83.0755 246.733C78.0978 253.045 75.6093 260.964 76.0821 268.989C77.8931 299.672 81.9479 345.517 90.4229 360.391C103.564 383.454 114.418 376.218 103.564 383.454C92.7097 390.69 85.4224 385.004 90.4229 396.44C95.4233 407.876 83.6645 422.545 83.6645 422.545L78.9835 427.226L83.9482 429.261L242.145 449.845C242.145 449.845 228.466 388.343 237.02 373.235C245.575 358.127 266.316 312.459 247.805 294.589L229.705 230.895L198.571 221.713L175.926 206.167Z" fill="black"/>
<path d="M411.374 458.589C408.771 458.506 406.217 457.859 403.889 456.692C401.561 455.526 399.513 453.867 397.889 451.832C396.265 449.796 395.102 447.432 394.481 444.903C393.861 442.374 393.797 439.74 394.294 437.183L320.087 386.928L328.942 362.985L416.641 423.318C420.882 424.475 424.551 427.148 426.953 430.829C429.355 434.511 430.323 438.946 429.674 443.293C429.024 447.641 426.803 451.599 423.43 454.418C420.057 457.237 415.768 458.721 411.374 458.589Z" fill="#FFB6B6"/>
<path d="M201.777 227.887L190.994 232.157L248.516 344.5L367.595 425.669L384.76 396.657L294.116 318.363L257.826 248.765C252.719 238.97 244.163 231.415 233.812 227.559C223.461 223.704 212.048 223.82 201.777 227.887Z" fill="#454545"/>
<path d="M154.455 196.286C176.025 196.286 193.511 178.8 193.511 157.231C193.511 135.661 176.025 118.175 154.455 118.175C132.885 118.175 115.399 135.661 115.399 157.231C115.399 178.8 132.885 196.286 154.455 196.286Z" fill="#FFB6B6"/>
<path d="M188.418 140.715C187.767 141.059 187.124 141.375 186.473 141.692C185.795 142.017 185.116 142.343 184.429 142.65C171.358 148.575 160.712 149.236 154.254 140.715C154.077 136.232 153.068 131.821 151.278 127.708C151.594 132.305 150.383 136.878 147.832 140.715H134.825C121.428 149.606 114.554 157.774 123.853 186.963C124.459 188.881 128.61 257.01 129.795 262.247C109.516 254.468 92.0223 171.876 91.5791 150.113C91.5519 149.76 91.5519 149.389 91.5519 149.027C91.5466 147.284 91.6373 145.542 91.8233 143.808C92.062 141.442 92.4731 139.096 93.0535 136.789L92.9992 136.78C90.9358 134.807 89.3618 132.38 88.4023 129.692C87.4428 127.003 87.1244 124.128 87.4725 121.295C90.8745 116.84 95.0845 113.066 99.8826 110.169C104.246 108.056 108.793 106.348 113.469 105.067C113.586 105.04 113.686 105.013 113.803 104.986C115.232 104.597 116.698 104.244 118.163 103.937C121.183 103.303 124.236 102.841 127.308 102.553C127.534 102.544 127.751 102.526 127.95 102.526C129.179 102.526 130.385 102.858 131.442 103.484C131.451 103.484 131.451 103.493 131.469 103.493C132.484 104.1 133.326 104.958 133.914 105.985C134.502 107.011 134.815 108.172 134.825 109.355H149.315C149.849 109.355 150.382 109.373 150.916 109.4C171.096 110.205 187.314 118.834 188.355 138.671C188.4 139.358 188.418 140.027 188.418 140.715Z" fill="black"/>
<path d="M102.747 142.285C116.958 142.285 128.477 130.765 128.477 116.555C128.477 102.344 116.958 90.8247 102.747 90.8247C88.5368 90.8247 77.017 102.344 77.017 116.555C77.017 130.765 88.5368 142.285 102.747 142.285Z" fill="#444444"/>
<path d="M138.072 104.654C135.149 118.56 120.727 126.878 106.93 123.475C100.304 121.841 94.599 117.643 91.0693 111.802C87.5395 105.962 86.4745 98.9587 88.1083 92.3331C91.5106 78.536 108.255 82.5136 119.25 73.5116C134.805 60.777 142.014 85.8998 138.072 104.654Z" fill="black"/>
<path d="M80.9033 491.756C102.833 402.329 146.284 325.465 218.244 265.242C221.029 260.661 225.518 257.371 230.725 256.095C235.933 254.819 241.434 255.66 246.021 258.435L417.09 362.157C421.671 364.942 424.961 369.431 426.237 374.638C427.513 379.846 426.672 385.347 423.897 389.934C396.431 481.697 355.293 561.322 286.557 616.449C283.772 621.03 279.283 624.32 274.076 625.596C268.868 626.872 263.367 626.031 258.78 623.256L87.7111 519.534C83.1296 516.749 79.8399 512.26 78.5636 507.053C77.2873 501.845 78.1287 496.344 80.9033 491.756Z" fill="#EBD750"/>
<path opacity="0.2" d="M111.309 521.895C106.728 519.11 103.438 514.621 102.162 509.414C100.885 504.206 101.727 498.705 104.501 494.117C126.431 404.69 169.882 327.825 241.842 267.603C243.686 264.604 246.289 262.145 249.388 260.476L246.021 258.434C241.434 255.66 235.933 254.818 230.725 256.095C225.518 257.371 221.029 260.66 218.244 265.242C146.284 325.464 102.833 402.328 80.9035 491.756C78.1289 496.344 77.2874 501.845 78.5637 507.052C79.8399 512.26 83.1296 516.748 87.7111 519.533L258.779 623.256C261.824 625.088 265.299 626.083 268.852 626.139C272.405 626.195 275.91 625.311 279.011 623.576L111.309 521.895Z" fill="black"/>
<path d="M311.928 471.931L197.1 402.743C195.275 401.64 193.963 399.859 193.451 397.79C192.939 395.72 193.27 393.533 194.37 391.707C195.47 389.881 197.25 388.567 199.318 388.052C201.387 387.538 203.575 387.865 205.402 388.963L320.231 458.152C322.051 459.256 323.359 461.037 323.868 463.104C324.377 465.171 324.046 467.356 322.947 469.18C321.849 471.003 320.072 472.316 318.006 472.832C315.941 473.348 313.755 473.024 311.928 471.931Z" fill="white"/>
<path d="M245.128 380.18L219.866 364.959C218.035 363.864 216.714 362.086 216.194 360.017C215.674 357.948 215.997 355.757 217.093 353.926C218.188 352.096 219.965 350.775 222.034 350.255C224.103 349.735 226.294 350.058 228.125 351.153L228.169 351.179L253.431 366.401C255.251 367.505 256.56 369.286 257.069 371.353C257.578 373.421 257.248 375.606 256.149 377.43C255.05 379.253 253.273 380.567 251.207 381.082C249.141 381.598 246.955 381.274 245.128 380.18Z" fill="white"/>
<path d="M293.678 502.22L178.849 433.032C177.023 431.932 175.708 430.152 175.193 428.083C174.678 426.014 175.006 423.825 176.104 421.998C177.202 420.17 178.981 418.854 181.049 418.337C183.118 417.82 185.307 418.146 187.135 419.242L187.152 419.252L301.981 488.441C303.801 489.545 305.108 491.326 305.617 493.393C306.127 495.46 305.796 497.645 304.697 499.468C303.598 501.292 301.821 502.605 299.756 503.121C297.691 503.637 295.505 503.313 293.678 502.22Z" fill="white"/>
<path d="M326.511 341.474C345.034 341.474 360.05 326.458 360.05 307.935C360.05 289.412 345.034 274.396 326.511 274.396C307.988 274.396 292.972 289.412 292.972 307.935C292.972 326.458 307.988 341.474 326.511 341.474Z" fill="#444444"/>
<path d="M268.698 667.318C308.289 667.318 340.383 635.224 340.383 595.633C340.383 556.043 308.289 523.948 268.698 523.948C229.108 523.948 197.013 556.043 197.013 595.633C197.013 635.224 229.108 667.318 268.698 667.318Z" fill="white"/>
<path d="M268.698 668.319C254.322 668.319 240.27 664.056 228.317 656.069C216.364 648.082 207.047 636.73 201.546 623.449C196.045 610.168 194.605 595.553 197.41 581.454C200.214 567.354 207.137 554.403 217.302 544.238C227.467 534.072 240.418 527.15 254.518 524.345C268.617 521.541 283.232 522.98 296.513 528.481C309.795 533.982 321.147 543.299 329.133 555.252C337.12 567.204 341.383 581.257 341.383 595.633C341.362 614.904 333.697 633.379 320.07 647.005C306.444 660.632 287.969 668.297 268.698 668.319ZM268.698 524.948C254.718 524.948 241.052 529.094 229.428 536.861C217.803 544.628 208.744 555.668 203.394 568.584C198.044 581.5 196.644 595.712 199.371 609.424C202.099 623.135 208.831 635.73 218.716 645.616C228.602 655.501 241.197 662.233 254.908 664.96C268.62 667.688 282.832 666.288 295.748 660.938C308.664 655.588 319.704 646.528 327.471 634.904C335.238 623.28 339.383 609.613 339.383 595.633C339.362 576.893 331.908 558.926 318.657 545.675C305.405 532.423 287.438 524.97 268.698 524.948Z" fill="#3F3D56"/>
<path d="M258.919 632.942C257.681 632.942 256.46 632.654 255.353 632.1C254.246 631.546 253.283 630.742 252.54 629.752L232.983 603.676C232.354 602.838 231.896 601.885 231.635 600.87C231.375 599.855 231.317 598.799 231.464 597.762C231.612 596.724 231.963 595.726 232.497 594.825C233.03 593.923 233.736 593.135 234.574 592.507C235.413 591.878 236.367 591.421 237.382 591.161C238.397 590.901 239.453 590.844 240.49 590.993C241.527 591.142 242.525 591.493 243.426 592.028C244.327 592.562 245.114 593.269 245.742 594.108L258.537 611.166L291.398 561.874C291.979 561.003 292.726 560.255 293.596 559.672C294.466 559.089 295.442 558.684 296.469 558.478C297.496 558.273 298.553 558.272 299.58 558.475C300.608 558.678 301.585 559.082 302.456 559.663C303.328 560.243 304.076 560.99 304.659 561.86C305.241 562.73 305.647 563.707 305.852 564.734C306.058 565.76 306.059 566.818 305.856 567.845C305.652 568.872 305.249 569.849 304.668 570.721L265.554 629.391C264.847 630.452 263.895 631.328 262.779 631.945C261.663 632.563 260.416 632.904 259.141 632.939C259.067 632.941 258.993 632.942 258.919 632.942Z" fill="#EBD750"/>
<path d="M500.206 232.366C503.055 232.123 505.227 230.319 505.057 228.337C504.888 226.355 502.441 224.947 499.593 225.19C496.744 225.434 494.572 227.238 494.742 229.219C494.911 231.201 497.358 232.61 500.206 232.366Z" fill="white"/>
<path d="M532.256 221.494C535.105 221.25 537.277 219.446 537.107 217.465C536.938 215.483 534.491 214.074 531.643 214.318C528.794 214.561 526.622 216.365 526.792 218.347C526.961 220.328 529.408 221.737 532.256 221.494Z" fill="#3F3D56"/>
<path d="M485.014 207.914C487.862 207.67 490.034 205.866 489.865 203.885C489.695 201.903 487.249 200.494 484.4 200.738C481.551 200.981 479.38 202.785 479.549 204.767C479.718 206.748 482.165 208.157 485.014 207.914Z" fill="#FF6584"/>
<path d="M471.57 200.035C472.796 199.758 473.467 198.104 473.068 196.342C472.67 194.579 471.353 193.375 470.127 193.652C468.901 193.929 468.23 195.583 468.629 197.345C469.027 199.107 470.343 200.312 471.57 200.035Z" fill="#E6E6E6"/>
<path d="M461.998 180.906C463.224 180.629 463.895 178.976 463.497 177.213C463.098 175.451 461.782 174.247 460.555 174.524C459.329 174.801 458.658 176.454 459.057 178.217C459.455 179.979 460.772 181.183 461.998 180.906Z" fill="#3F3D56"/>
<path d="M507.922 207.769C509.148 207.492 509.819 205.839 509.421 204.076C509.022 202.314 507.706 201.11 506.48 201.387C505.254 201.664 504.582 203.317 504.981 205.079C505.379 206.842 506.696 208.046 507.922 207.769Z" fill="#E6E6E6"/>
<path d="M493.923 219.39C495.149 219.113 495.82 217.46 495.422 215.697C495.023 213.935 493.707 212.731 492.481 213.008C491.255 213.285 490.584 214.938 490.982 216.701C491.38 218.463 492.697 219.667 493.923 219.39Z" fill="#FF6584"/>
<path d="M519.408 228.856C520.634 228.579 521.305 226.925 520.907 225.163C520.509 223.401 519.192 222.196 517.966 222.473C516.74 222.75 516.069 224.404 516.467 226.166C516.865 227.929 518.182 229.133 519.408 228.856Z" fill="#3F3D56"/>
<path d="M367.88 84.1931C368.369 82.2652 366.518 80.1329 363.747 79.4306C360.976 78.7283 358.333 79.7218 357.844 81.6497C357.356 83.5776 359.206 85.7098 361.978 86.4122C364.749 87.1145 367.392 86.121 367.88 84.1931Z" fill="white"/>
<path d="M334.037 83.9747C334.525 82.0468 332.675 79.9146 329.903 79.2123C327.132 78.51 324.489 79.5035 324.001 81.4314C323.512 83.3593 325.363 85.4916 328.134 86.1939C330.906 86.8962 333.548 85.9026 334.037 83.9747Z" fill="#3F3D56"/>
<path d="M374.231 112.271C374.72 110.344 372.869 108.211 370.098 107.509C367.327 106.807 364.684 107.8 364.195 109.728C363.707 111.656 365.557 113.788 368.329 114.491C371.1 115.193 373.743 114.199 374.231 112.271Z" fill="#FF6584"/>
<path d="M382.121 122.859C382.321 121.063 381.471 119.495 380.222 119.355C378.973 119.215 377.798 120.558 377.597 122.354C377.396 124.149 378.246 125.718 379.495 125.858C380.745 125.997 381.92 124.655 382.121 122.859Z" fill="#E6E6E6"/>
<path d="M384.904 144.067C385.104 142.271 384.254 140.702 383.005 140.563C381.756 140.423 380.581 141.766 380.38 143.561C380.179 145.357 381.029 146.926 382.278 147.066C383.528 147.205 384.703 145.863 384.904 144.067Z" fill="#3F3D56"/>
<path d="M350.303 103.651C350.504 101.855 349.654 100.287 348.405 100.147C347.156 100.007 345.98 101.35 345.78 103.146C345.579 104.941 346.429 106.51 347.678 106.65C348.927 106.789 350.103 105.447 350.303 103.651Z" fill="#E6E6E6"/>
<path d="M367.335 97.2526C367.536 95.4569 366.686 93.8881 365.436 93.7485C364.187 93.6089 363.012 94.9515 362.811 96.7472C362.611 98.5428 363.461 100.112 364.71 100.251C365.959 100.391 367.134 99.0483 367.335 97.2526Z" fill="#FF6584"/>
<path d="M346.353 79.966C346.553 78.1703 345.703 76.6015 344.454 76.4619C343.205 76.3223 342.03 77.6649 341.829 79.4605C341.628 81.2562 342.478 82.8251 343.728 82.9646C344.977 83.1042 346.152 81.7617 346.353 79.966Z" fill="#3F3D56"/>
<path d="M91.5699 492.704C89.0139 491.656 86.7159 490.066 84.8347 488.043C82.9536 486.021 81.5344 483.613 80.6751 480.988C79.8159 478.363 79.5372 475.582 79.8582 472.838C80.1793 470.095 81.0925 467.454 82.5347 465.098L27.4293 387.637L45.1075 367.127L109.884 459.607C113.669 462.33 116.324 466.346 117.346 470.895C118.368 475.444 117.685 480.21 115.428 484.29C113.17 488.37 109.495 491.479 105.097 493.03C100.7 494.581 95.8871 494.465 91.5699 492.704Z" fill="#FFB6B6"/>
<path d="M92.8362 247.232C90.0483 245.592 86.7671 244.999 83.5815 245.56C80.3959 246.12 77.5145 247.798 75.4544 250.292L0.999878 354.421L69.9999 452.421L96.9999 423.421L54.9999 357.421L110.818 304.275C115.405 294.227 116.106 282.835 112.785 272.3C109.464 261.764 102.357 252.834 92.8362 247.232Z" fill="#454545"/>
</g>
<defs>
<clipPath id="clip0_27_152">
<rect width="575.455" height="668.319" fill="white"/>
</clipPath>
</defs>
</svg>
